<?xml version="1.0" encoding="utf-8"?>
<!-- Generator: Adobe Illustrator 28.2.0, SVG Export Plug-In . SVG Version: 6.00 Build 0)  -->
<svg version="1.1" id="Layer_1" xmlns="http://www.w3.org/2000/svg" xmlns:xlink="http://www.w3.org/1999/xlink" x="0px" y="0px"
	 viewBox="0 0 86.82 82.87" style="enable-background:new 0 0 86.82 82.87;" xml:space="preserve">
<style type="text/css">
	.st0{fill:none;stroke:#93BE3E;stroke-width:3;stroke-linecap:round;stroke-linejoin:round;stroke-miterlimit:10;}
	.st1{fill:#93BE3E;}
</style>
<g>
	<g>
		<path class="st0" d="M58.74,65.38"/>
	</g>
	<g>
		<g>
			<path class="st1" d="M56.73,63.95H37.06c-0.74,0-1.35-0.6-1.35-1.35s0.6-1.35,1.35-1.35h19.67c1.54,0,2.8-1.26,2.8-2.8
				c0-1.54-1.26-2.8-2.8-2.8H44.07c-0.54,0-1.04-0.33-1.24-0.83c-0.13-0.31-3.39-7.73-13.71-7.73c-0.09,0-6.26-0.07-10.48,4.08
				c-2.71,2.66-4.08,6.5-4.08,11.43c0,0.74-0.6,1.35-1.35,1.35s-1.35-0.6-1.35-1.35c0-5.69,1.65-10.19,4.91-13.37
				c5.05-4.94,12.08-4.83,12.38-4.83c10.11,0,14.48,6.25,15.75,8.56h11.83c3.03,0,5.49,2.46,5.49,5.49
				C62.22,61.48,59.76,63.95,56.73,63.95z"/>
		</g>
		<g>
			<path class="st1" d="M13.73,81.89c-0.34,0-0.69-0.13-0.95-0.39c-0.53-0.53-0.53-1.38,0-1.9c6.24-6.24,14.36-6.31,14.7-6.31h23.29
				c5.75,0,11.52-2.57,16.24-7.23c4.82-4.75,7.85-8.46,14.75-21.91c0.58-1.13,0.19-2.54-0.89-3.21c-0.94-0.58-2.16-0.46-2.95,0.29
				c-0.94,1.63-8.21,13.88-16.41,19.26c-0.62,0.41-1.46,0.23-1.86-0.39c-0.41-0.62-0.24-1.46,0.39-1.86
				c8.06-5.29,15.56-18.37,15.64-18.5c0.05-0.1,0.12-0.18,0.2-0.26c1.67-1.75,4.37-2.09,6.43-0.82c2.26,1.41,3.08,4.36,1.87,6.73
				c-7.33,14.28-10.65,18.06-15.26,22.6c-5.23,5.16-11.67,8-18.13,8H27.47c-0.07,0-7.37,0.09-12.79,5.52
				C14.42,81.75,14.07,81.89,13.73,81.89z"/>
		</g>
		<g>
			<path class="st1" d="M8.63,61.6c-2.08,0-4.5-0.3-6.66-1.35c-0.67-0.32-0.95-1.13-0.63-1.8c0.32-0.67,1.13-0.95,1.8-0.63
				c4.18,2.02,9.85,0.6,9.91,0.59c0.72-0.18,1.45,0.25,1.64,0.97s-0.25,1.45-0.97,1.64C13.56,61.06,11.4,61.6,8.63,61.6z"/>
		</g>
		<g>
			<path class="st1" d="M44.52,30.08c-6.4,0-11.61-5.21-11.61-11.61c0-5.23,7.12-13.58,10.19-16.93c0.74-0.81,2.11-0.81,2.85,0l0,0
				C49,4.88,56.13,13.23,56.13,18.47C56.13,24.87,50.92,30.08,44.52,30.08z M44.52,3.97c-4.24,4.73-8.92,11.13-8.92,14.49
				c0,4.92,4,8.92,8.92,8.92c4.92,0,8.92-4,8.92-8.92C53.44,15.11,48.75,8.71,44.52,3.97z M43.96,3.35
				C43.96,3.35,43.96,3.35,43.96,3.35C43.96,3.35,43.96,3.35,43.96,3.35z"/>
		</g>
		<g>
			<path class="st1" d="M44.52,38.39c-0.74,0-1.35-0.6-1.35-1.35V21.78c0-0.74,0.6-1.35,1.35-1.35s1.35,0.6,1.35,1.35v15.26
				C45.86,37.79,45.26,38.39,44.52,38.39z"/>
		</g>
		<g>
			<path class="st1" d="M70.81,50.28c-0.54,0-1.05-0.32-1.25-0.85c-0.95-2.41-2.7-4.49-4.95-5.86c-0.46-0.28-0.71-0.82-0.63-1.35
				c0.06-0.37,0.11-0.71,0.11-1.02c0-3.73-3.03-6.76-6.76-6.76c-2.81,0-5.35,1.79-6.32,4.45c-0.13,0.36-0.41,0.64-0.76,0.78
				c-0.35,0.14-0.75,0.13-1.09-0.04c-1.29-0.62-2.63-0.94-3.97-0.94c-3.08,0-6.28,1.83-7.23,3.48c-0.19,0.33-0.51,0.56-0.87,0.64
				c-0.37,0.08-0.75,0.01-1.06-0.21c-0.93-0.65-2.11-0.7-3.24-0.7c-2.53,0-4.61,1.78-4.95,4.24c-0.1,0.74-0.78,1.25-1.52,1.15
				c-0.74-0.1-1.25-0.78-1.15-1.52c0.51-3.75,3.79-6.57,7.61-6.57c0.84,0,2.24,0,3.62,0.56c1.92-2.15,5.56-3.77,8.79-3.77
				c1.31,0,2.61,0.23,3.87,0.68c1.64-3,4.81-4.93,8.27-4.93c5.21,0,9.45,4.24,9.45,9.45c0,0.19-0.01,0.38-0.03,0.56
				c2.39,1.66,4.26,4.01,5.31,6.69c0.27,0.69-0.07,1.47-0.76,1.75C71.14,50.25,70.97,50.28,70.81,50.28z"/>
		</g>
	</g>
</g>
</svg>
