<?xml version="1.0" encoding="utf-8"?>
<!-- Generator: Adobe Illustrator 28.2.0, SVG Export Plug-In . SVG Version: 6.00 Build 0)  -->
<svg version="1.1" id="Layer_1" xmlns="http://www.w3.org/2000/svg" xmlns:xlink="http://www.w3.org/1999/xlink" x="0px" y="0px"
	 viewBox="0 0 87.51 15.41" style="enable-background:new 0 0 87.51 15.41;" xml:space="preserve">
<style type="text/css">
	.st0{fill:#D03B35;}
	.st1{fill:#FFFFFF;}
</style>
<g>
	<path class="st0" d="M4.48,1.51c0.6-0.01,1.21,0.02,1.83,0.1c0.63,0.08,1.29,0.24,2,0.48C8.3,2.24,8.29,2.38,8.28,2.48
		C8.27,2.59,8.27,2.7,8.27,2.81c0,0.16-0.01,0.45-0.02,0.9C8.23,4.15,8.2,4.83,8.14,5.75c-0.41-0.14-0.8-0.28-1.16-0.4
		c-0.36-0.13-0.76-0.23-1.2-0.3c-0.3-0.06-0.55-0.07-0.77-0.04C4.8,5.04,4.65,5.09,4.56,5.16c-0.09,0.07-0.1,0.15-0.05,0.23
		C4.56,5.48,4.69,5.54,4.9,5.58l1.51,0.58c0.43,0.16,0.82,0.35,1.17,0.59c0.36,0.23,0.67,0.5,0.94,0.8C8.79,7.84,9,8.17,9.15,8.54
		C9.3,8.9,9.38,9.29,9.38,9.72c0.01,0.6-0.09,1.14-0.3,1.62c-0.21,0.48-0.5,0.91-0.87,1.27c-0.37,0.36-0.81,0.65-1.33,0.87
		C6.35,13.7,5.8,13.85,5.2,13.92c-0.09,0.01-0.21,0.02-0.38,0.03c-0.17,0.01-0.34,0.01-0.51,0.01c-0.36,0.01-0.7,0.01-1.02-0.02
		c-0.33-0.03-0.62-0.06-0.87-0.11c-0.27-0.07-0.59-0.16-0.95-0.27C1.1,13.46,0.61,13.3,0,13.09l0.9-3.9
		C1.21,9.27,1.51,9.37,1.8,9.47C2.09,9.58,2.38,9.69,2.67,9.8c0.29,0.11,0.59,0.21,0.88,0.3c0.3,0.09,0.61,0.15,0.94,0.19
		c0.11-0.01,0.21-0.04,0.3-0.09c0.09-0.04,0.14-0.12,0.17-0.23c0-0.1-0.04-0.18-0.11-0.26C4.79,9.65,4.7,9.58,4.6,9.53
		C4.5,9.47,4.39,9.42,4.27,9.38C4.15,9.33,4.04,9.3,3.94,9.27C3.39,9.14,2.88,8.93,2.41,8.64C1.94,8.35,1.53,8.01,1.19,7.63
		c-0.34-0.38-0.61-0.8-0.8-1.24C0.2,5.95,0.11,5.51,0.11,5.07C0.09,4.33,0.32,3.65,0.78,3.03c0.46-0.63,1.19-1.06,2.18-1.3
		C3.22,1.66,3.47,1.6,3.72,1.57C3.97,1.53,4.22,1.51,4.48,1.51z"/>
	<path class="st0" d="M19.25,7.26c-0.09,0.61-0.29,1.17-0.6,1.69c-0.31,0.52-0.69,0.97-1.15,1.34c-0.46,0.38-0.97,0.67-1.55,0.88
		c-0.58,0.21-1.18,0.31-1.8,0.31c-0.07,0-0.17,0-0.28,0c-0.12,0-0.21-0.01-0.28-0.02v2.49H9.51V1.51h3.86c0.82,0,1.6,0.11,2.32,0.33
		c0.72,0.22,1.35,0.53,1.89,0.94c0.53,0.41,0.96,0.92,1.27,1.53c0.31,0.61,0.47,1.29,0.47,2.06C19.31,6.69,19.29,6.98,19.25,7.26z
		 M15.17,6.49c0-0.26-0.09-0.47-0.28-0.65c-0.19-0.18-0.42-0.27-0.69-0.27h-0.61v1.87h0.61c0.27,0,0.51-0.09,0.69-0.27
		C15.08,6.98,15.17,6.76,15.17,6.49z"/>
	<path class="st0" d="M25.76,1.51l4.01,12.45h-4.12l-0.39-1.43h-3.45l-0.39,1.43H17.3l4.01-12.45H25.76z M24.22,9.01l-0.67-2.67
		l-0.69,2.67H24.22z"/>
	<path class="st0" d="M40.39,11.18c-0.16,0.21-0.34,0.44-0.55,0.67c-0.21,0.23-0.38,0.4-0.49,0.5c-0.64,0.51-1.34,0.9-2.11,1.18
		c-0.77,0.28-1.56,0.41-2.37,0.41c-0.89,0-1.77-0.18-2.65-0.54c-0.87-0.36-1.64-0.87-2.31-1.52c-0.57-0.6-1-1.25-1.29-1.97
		c-0.29-0.72-0.44-1.45-0.44-2.2c0-0.85,0.18-1.68,0.55-2.48c0.37-0.8,0.91-1.51,1.64-2.11c0.65-0.52,1.36-0.92,2.11-1.2
		c0.76-0.28,1.53-0.41,2.33-0.41c0.92,0,1.83,0.19,2.73,0.57c0.9,0.38,1.71,0.95,2.43,1.7l-3.02,2.51
		c-0.33-0.33-0.67-0.57-1.04-0.73c-0.37-0.16-0.74-0.24-1.11-0.24c-0.62,0-1.2,0.21-1.74,0.64c-0.27,0.23-0.47,0.5-0.62,0.81
		c-0.14,0.31-0.21,0.63-0.21,0.96c0,0.28,0.05,0.57,0.16,0.85c0.11,0.28,0.28,0.55,0.52,0.79c0.27,0.28,0.57,0.49,0.9,0.63
		c0.33,0.13,0.68,0.2,1.03,0.2c0.31,0,0.62-0.05,0.91-0.15c0.3-0.1,0.57-0.26,0.83-0.49c0.07-0.04,0.16-0.13,0.27-0.26
		c0.11-0.13,0.18-0.23,0.22-0.3L40.39,11.18z"/>
	<path class="st0" d="M49.7,10.18v3.77h-9.15V1.53h9.15v3.77h-5.07v0.85h3.26v3.21h-3.26v0.82H49.7z"/>
	<path class="st1" d="M60.72,12.91c-0.36,0.24-0.86,0.47-1.51,0.68c-0.64,0.2-1.31,0.31-1.98,0.31c-1.73,0-3.12-0.58-4.15-1.72
		c-1.03-1.15-1.56-2.65-1.56-4.45c0-1.81,0.52-3.3,1.56-4.45c1.02-1.14,2.44-1.72,4.22-1.72c1.24,0,2.43,0.33,3.51,0.97l0.4,0.24
		l0.45-1.48l-0.24-0.15c-1.17-0.73-2.56-1.1-4.12-1.1c-2.2,0-4,0.74-5.35,2.19c-1.34,1.44-2.02,3.29-2.02,5.5
		c0,2.21,0.68,4.06,2.02,5.5c1.34,1.45,3.12,2.19,5.28,2.19c1.5,0,2.89-0.39,4.12-1.15l0.24-0.15l-0.46-1.48L60.72,12.91z"/>
	<polygon class="st1" points="69.14,0 67.78,0 61.26,15.39 62.95,15.39 68.46,2.33 71.25,8.93 71.25,8.93 73.97,15.39 75.67,15.39 	
		"/>
	<path class="st1" d="M83.6,8.43c0.99-0.24,1.76-0.68,2.29-1.31c0.59-0.7,0.89-1.63,0.89-2.78c0-1.34-0.44-2.42-1.31-3.19
		C84.62,0.39,83.28,0,81.49,0h-5.55v15.39h1.56V1.52h3.99c2.53,0,3.71,0.9,3.71,2.82c0,1.88-1.14,2.77-3.59,2.8l-0.67,0.01
		l4.73,8.24h1.85L83.6,8.43z"/>
	<path class="st1" d="M60.99,4.08c-0.8,0.91-1.63,1.78-2.44,2.69c-0.19,0.22-0.29,0.4-0.2,0.72c0.16,0.55-0.13,1.1-0.62,1.34
		c-0.47,0.24-1.08,0.13-1.44-0.26c-0.37-0.4-0.43-1.03-0.14-1.49c0.29-0.46,0.88-0.7,1.4-0.5c0.23,0.09,0.36,0.04,0.52-0.11
		c0.81-0.73,1.63-1.46,2.45-2.18c0.12-0.11,0.24-0.21,0.37-0.32C60.9,3.99,60.97,4.06,60.99,4.08z"/>
</g>
</svg>
