<?xml version="1.0" encoding="utf-8"?>
<!-- Generator: Adobe Illustrator 28.2.0, SVG Export Plug-In . SVG Version: 6.00 Build 0)  -->
<svg version="1.1" id="Layer_1" xmlns="http://www.w3.org/2000/svg" xmlns:xlink="http://www.w3.org/1999/xlink" x="0px" y="0px"
	 viewBox="0 0 150.21 26.39" style="enable-background:new 0 0 150.21 26.39;" xml:space="preserve">
<style type="text/css">
	.st0{fill:#FFFFFF;}
</style>
<g>
	<path class="st0" d="M8.03,2.59c1.02-0.02,2.07,0.03,3.14,0.16c1.07,0.13,2.21,0.41,3.43,0.82c-0.02,0.27-0.04,0.49-0.05,0.68
		c-0.01,0.18-0.02,0.37-0.02,0.57c0,0.27-0.01,0.78-0.04,1.53c-0.02,0.75-0.09,1.92-0.18,3.5c-0.71-0.24-1.37-0.47-1.99-0.69
		c-0.62-0.22-1.31-0.39-2.06-0.51c-0.51-0.1-0.95-0.12-1.31-0.07C8.58,8.62,8.33,8.71,8.18,8.83C8.03,8.95,8,9.09,8.09,9.23
		C8.17,9.38,8.4,9.49,8.76,9.56l2.59,0.99c0.73,0.27,1.4,0.6,2.01,1c0.61,0.4,1.14,0.86,1.61,1.37c0.46,0.51,0.82,1.08,1.08,1.7
		c0.26,0.62,0.38,1.3,0.38,2.03c0.02,1.02-0.15,1.95-0.51,2.77c-0.36,0.83-0.86,1.55-1.5,2.17c-0.63,0.62-1.39,1.12-2.28,1.5
		c-0.89,0.38-1.84,0.63-2.86,0.75c-0.15,0.02-0.36,0.04-0.66,0.05C8.33,23.9,8.03,23.9,7.74,23.9c-0.61,0.02-1.19,0.01-1.75-0.04
		c-0.56-0.05-1.06-0.11-1.5-0.18c-0.46-0.12-1-0.27-1.62-0.46c-0.62-0.18-1.45-0.46-2.5-0.82l1.53-6.68
		c0.53,0.15,1.05,0.31,1.55,0.49c0.5,0.18,1,0.37,1.5,0.57c0.5,0.2,1,0.36,1.51,0.51s1.05,0.26,1.61,0.33
		c0.19-0.02,0.36-0.07,0.51-0.15c0.15-0.07,0.24-0.21,0.29-0.4c0-0.17-0.06-0.32-0.18-0.44c-0.12-0.12-0.27-0.23-0.44-0.33
		c-0.17-0.1-0.36-0.18-0.57-0.26c-0.21-0.07-0.4-0.13-0.57-0.18C6.17,15.65,5.3,15.3,4.49,14.8c-0.8-0.5-1.5-1.08-2.08-1.73
		c-0.58-0.66-1.04-1.36-1.37-2.12c-0.33-0.75-0.49-1.51-0.49-2.26C0.53,7.42,0.91,6.25,1.7,5.18c0.79-1.07,2.04-1.81,3.74-2.23
		c0.44-0.12,0.87-0.21,1.3-0.27C7.16,2.62,7.6,2.59,8.03,2.59z"/>
	<path class="st0" d="M33.33,12.43c-0.15,1.04-0.49,2.01-1.02,2.9c-0.53,0.89-1.19,1.66-1.97,2.3c-0.78,0.64-1.67,1.15-2.65,1.5
		c-0.99,0.36-2.02,0.54-3.08,0.54c-0.12,0-0.28,0-0.48,0c-0.2,0-0.36-0.01-0.48-0.04v4.27h-6.98V2.59h6.61
		c1.41,0,2.74,0.19,3.97,0.56c1.24,0.37,2.31,0.91,3.23,1.62c0.92,0.71,1.64,1.58,2.17,2.62c0.53,1.04,0.8,2.22,0.8,3.53
		C33.44,11.45,33.4,11.96,33.33,12.43z M26.35,11.11c0-0.44-0.16-0.81-0.48-1.12c-0.32-0.31-0.72-0.46-1.19-0.46h-1.04v3.19h1.04
		c0.47,0,0.87-0.15,1.19-0.46C26.19,11.96,26.35,11.57,26.35,11.11z"/>
	<path class="st0" d="M44.48,2.59l6.87,21.31H44.3l-0.67-2.45h-5.9l-0.67,2.45H30l6.87-21.31H44.48z M41.85,15.43l-1.15-4.57
		l-1.19,4.57H41.85z"/>
	<path class="st0" d="M69.53,19.14c-0.27,0.36-0.58,0.75-0.95,1.15c-0.36,0.4-0.64,0.69-0.84,0.86c-1.09,0.87-2.3,1.55-3.62,2.02
		c-1.32,0.47-2.67,0.71-4.06,0.71c-1.53,0-3.04-0.31-4.53-0.93c-1.49-0.62-2.81-1.49-3.95-2.6c-0.97-1.02-1.7-2.14-2.2-3.37
		c-0.5-1.22-0.75-2.48-0.75-3.77c0-1.46,0.31-2.87,0.95-4.24c0.63-1.37,1.56-2.58,2.8-3.62c1.12-0.9,2.32-1.58,3.62-2.06
		c1.3-0.47,2.63-0.71,3.99-0.71c1.58,0,3.14,0.33,4.68,0.98c1.54,0.66,2.93,1.63,4.17,2.91l-5.17,4.29
		c-0.56-0.56-1.15-0.98-1.78-1.26c-0.63-0.28-1.26-0.42-1.89-0.42c-1.07,0-2.06,0.36-2.98,1.09c-0.46,0.39-0.81,0.85-1.06,1.38
		c-0.24,0.53-0.36,1.08-0.36,1.64c0,0.49,0.09,0.97,0.27,1.46c0.18,0.49,0.48,0.93,0.89,1.35c0.46,0.49,0.98,0.84,1.55,1.07
		c0.57,0.23,1.16,0.35,1.77,0.35c0.53,0,1.06-0.08,1.56-0.25c0.51-0.17,0.98-0.45,1.42-0.84c0.12-0.07,0.27-0.22,0.45-0.44
		c0.18-0.22,0.31-0.39,0.38-0.51L69.53,19.14z"/>
	<path class="st0" d="M85.47,17.44v6.46H69.8V2.62h15.67v6.46h-8.69v1.45h5.58v5.5h-5.58v1.41H85.47z"/>
	<path class="st0" d="M104.34,22.1c-0.61,0.42-1.48,0.8-2.59,1.16c-1.1,0.35-2.24,0.53-3.39,0.53c-2.96,0-5.35-0.99-7.1-2.94
		c-1.77-1.97-2.67-4.54-2.67-7.63c0-3.09,0.9-5.66,2.67-7.63c1.75-1.95,4.18-2.94,7.22-2.94c2.13,0,4.15,0.56,6.01,1.66l0.68,0.41
		l0.77-2.53l-0.4-0.25c-2-1.25-4.38-1.89-7.06-1.89c-3.77,0-6.85,1.26-9.16,3.74c-2.29,2.47-3.45,5.64-3.45,9.42
		c0,3.78,1.16,6.95,3.45,9.42c2.3,2.48,5.34,3.74,9.04,3.74c2.58,0,4.95-0.66,7.06-1.96l0.41-0.25l-0.79-2.54L104.34,22.1z"/>
	<polygon class="st0" points="118.76,0 116.43,0 105.26,26.35 108.17,26.35 117.6,4 122.37,15.29 122.37,15.29 127.03,26.35 
		129.94,26.35 	"/>
	<path class="st0" d="M143.51,14.43c1.69-0.42,3.01-1.17,3.92-2.24c1.01-1.2,1.53-2.79,1.53-4.75c0-2.3-0.75-4.14-2.24-5.46
		C145.26,0.66,142.96,0,139.9,0h-9.5v26.35h2.68V2.6h6.82c4.33,0,6.35,1.54,6.35,4.83c0,3.22-1.96,4.74-6.15,4.79l-1.14,0.01
		l8.09,14.12h3.17L143.51,14.43z"/>
	<path class="st0" d="M104.8,6.99c-1.37,1.56-2.8,3.06-4.18,4.6c-0.33,0.37-0.5,0.68-0.34,1.22c0.27,0.94-0.22,1.88-1.07,2.3
		c-0.81,0.41-1.85,0.22-2.47-0.44C96.1,14,96,12.92,96.5,12.13c0.5-0.79,1.5-1.2,2.39-0.86c0.4,0.15,0.61,0.07,0.9-0.19
		c1.39-1.26,2.79-2.49,4.19-3.74c0.21-0.18,0.42-0.36,0.63-0.54C104.65,6.84,104.76,6.95,104.8,6.99z"/>
</g>
</svg>
